<svg xmlns="http://www.w3.org/2000/svg" xmlns:xlink="http://www.w3.org/1999/xlink" width="50" zoomAndPan="magnify" viewBox="0 0 37.5 37.499999" height="50" preserveAspectRatio="xMidYMid meet" version="1.0"><defs><g><g id="id1"/></g></defs><g fill="rgb(0%, 0%, 0%)" fill-opacity="1"><g transform="translate(6.832031, 24.749998)"><g><path d="M 7.640625 -4.859375 L 11.296875 -4.59375 L 11.40625 -1.453125 L 10.671875 -0.046875 L 1.8125 0.015625 L 0.484375 -0.6875 L 0.390625 -14.421875 L 0.984375 -15.71875 L 10.421875 -15.609375 L 11.59375 -14.5625 L 11.328125 -10.3125 L 7.609375 -10.3125 L 7.265625 -12.546875 L 4.515625 -12.65625 L 4.703125 -2.90625 L 7.3125 -2.71875 Z M 7.640625 -4.859375 "/></g></g></g><g fill="rgb(0%, 0%, 0%)" fill-opacity="1"><g transform="translate(18.812769, 24.749998)"><g><path d="M 10.5625 -15.71875 L 11.484375 -14.71875 L 11.34375 -1.4375 L 10.609375 -0.046875 L 1.78125 0.015625 L 0.484375 -0.75 L 0.390625 -14.6875 L 1.015625 -15.671875 Z M 4.515625 -12.421875 L 4.640625 -3.34375 L 7.296875 -3.171875 L 7.328125 -12.1875 Z M 4.515625 -12.421875 "/></g></g></g></svg>