<svg xmlns="http://www.w3.org/2000/svg" xmlns:xlink="http://www.w3.org/1999/xlink" width="50" zoomAndPan="magnify" viewBox="0 0 37.5 37.499999" height="50" preserveAspectRatio="xMidYMid meet" version="1.0"><defs><g><g id="id1"/><g id="id2"/></g></defs><g fill="rgb(0%, 0%, 0%)" fill-opacity="1"><g transform="translate(3.75, 25.089993)"><g><path d="M 7.90625 -15.453125 L 12.3125 -15.640625 L 11.734375 -0.15625 L 8.21875 -0.015625 L 4.59375 -7.6875 L 4.328125 -0.390625 L 0.390625 0 L 0.515625 -15.625 L 4.75 -15.625 L 7.859375 -9.0625 Z M 7.90625 -15.453125 "/></g></g></g><g fill="rgb(0%, 0%, 0%)" fill-opacity="1"><g transform="translate(16.442969, 25.089993)"><g><path d="M 10.5625 -15.71875 L 11.484375 -14.71875 L 11.34375 -1.4375 L 10.609375 -0.046875 L 1.78125 0.015625 L 0.484375 -0.75 L 0.390625 -14.6875 L 1.015625 -15.671875 Z M 4.515625 -12.421875 L 4.640625 -3.34375 L 7.296875 -3.171875 L 7.328125 -12.1875 Z M 4.515625 -12.421875 "/></g></g></g><g fill="rgb(0%, 0%, 0%)" fill-opacity="1"><g transform="translate(28.327521, 27.212359)"><g><path d="M 5.546875 -1.84375 L 5.640625 0.015625 L 0.5625 -0.015625 L 0.21875 -0.421875 L 0.203125 -2.015625 L 3.484375 -5.234375 L 3.421875 -5.953125 L 2.21875 -6.0625 L 1.96875 -5.265625 L 0.5625 -5.328125 L 0.203125 -5.640625 L 0.296875 -7.5 L 1.5625 -7.859375 L 5.203125 -7.6875 L 5.546875 -6.84375 L 5.515625 -4.515625 L 2.6875 -1.8125 Z M 5.546875 -1.84375 "/></g></g></g></svg>