<svg xmlns="http://www.w3.org/2000/svg" xmlns:xlink="http://www.w3.org/1999/xlink" width="50" zoomAndPan="magnify" viewBox="0 0 37.5 37.499999" height="50" preserveAspectRatio="xMidYMid meet" version="1.0"><defs><g><g id="id1"/><g id="id2"/></g></defs><g fill="rgb(0%, 0%, 0%)" fill-opacity="1"><g transform="translate(9.85258, 23.723225)"><g><path d="M 10.5625 -15.71875 L 11.484375 -14.71875 L 11.34375 -1.4375 L 10.609375 -0.046875 L 1.78125 0.015625 L 0.484375 -0.75 L 0.390625 -14.6875 L 1.015625 -15.671875 Z M 4.515625 -12.421875 L 4.640625 -3.34375 L 7.296875 -3.171875 L 7.328125 -12.1875 Z M 4.515625 -12.421875 "/></g></g></g><g fill="rgb(0%, 0%, 0%)" fill-opacity="1"><g transform="translate(21.652899, 25.63646)"><g><path d="M 5.796875 -7.34375 L 5.78125 -5.078125 L 5.265625 -4.140625 L 5.78125 -2.984375 L 5.75 -0.625 L 5.40625 0.015625 L 0.65625 -0.015625 L 0.296875 -0.734375 L 0.296875 -2.515625 L 0.625 -2.90625 L 2.203125 -2.90625 L 2.328125 -1.578125 L 3.6875 -1.671875 L 3.75 -3.234375 L 2.078125 -3.375 L 2.1875 -4.8125 L 3.671875 -4.828125 L 3.734375 -6.140625 L 2.3125 -6.25 L 2.171875 -5.265625 L 0.328125 -5.265625 L 0.203125 -7.34375 L 0.78125 -7.859375 L 5.484375 -7.828125 Z M 5.796875 -7.34375 "/></g></g></g></svg>