<svg xmlns="http://www.w3.org/2000/svg" xmlns:xlink="http://www.w3.org/1999/xlink" width="50" zoomAndPan="magnify" viewBox="0 0 37.5 37.499999" height="50" preserveAspectRatio="xMidYMid meet" version="1.0"><defs><g><g id="id1"/><g id="id2"/></g></defs><g fill="rgb(0%, 0%, 0%)" fill-opacity="1"><g transform="translate(0.988465, 23.723225)"><g><path d="M 11.453125 -14.3125 L 11.484375 -5.046875 L 10.65625 -4.09375 L 4.5625 -3.890625 L 4.390625 -0.28125 L 0.390625 0.0625 L 0.390625 -15.671875 L 10.6875 -15.078125 Z M 7.34375 -11.96875 L 4.75 -12.21875 L 4.65625 -7.4375 L 7.328125 -7.625 Z M 7.34375 -11.96875 "/></g></g></g><g fill="rgb(0%, 0%, 0%)" fill-opacity="1"><g transform="translate(12.856213, 23.723225)"><g><path d="M 13.390625 -15.625 L 13.5625 -0.046875 L 9.4375 -0.140625 L 9.125 -9.015625 L 6.9375 -5.765625 L 4.890625 -8.90625 L 4.578125 -0.203125 L 0.390625 -0.046875 L 0.609375 -15.765625 L 4.75 -15.703125 L 6.9375 -12.171875 L 9.046875 -15.6875 Z M 13.390625 -15.625 "/></g></g></g><g fill="rgb(0%, 0%, 0%)" fill-opacity="1"><g transform="translate(26.809294, 27.003228)"><g><path d="M 1.765625 -7.796875 L 3.59375 -7.859375 L 3.4375 -0.125 L 1.5 0 L 1.625 -5.4375 L 1.015625 -5.046875 L 0.203125 -6.46875 Z M 1.765625 -7.796875 "/></g></g></g><g fill="rgb(0%, 0%, 0%)" fill-opacity="1"><g transform="translate(30.591641, 27.003228)"><g><path d="M 5.28125 -7.859375 L 5.734375 -7.359375 L 5.671875 -0.71875 L 5.3125 -0.015625 L 0.890625 0.015625 L 0.25 -0.375 L 0.203125 -7.34375 L 0.515625 -7.828125 Z M 2.265625 -6.21875 L 2.3125 -1.671875 L 3.640625 -1.578125 L 3.671875 -6.09375 Z M 2.265625 -6.21875 "/></g></g></g></svg>