<svg xmlns="http://www.w3.org/2000/svg" xmlns:xlink="http://www.w3.org/1999/xlink" width="50" zoomAndPan="magnify" viewBox="0 0 37.5 37.499999" height="50" preserveAspectRatio="xMidYMid meet" version="1.0"><defs><g><g id="id1"/><g id="id2"/></g></defs><g fill="rgb(0%, 0%, 0%)" fill-opacity="1"><g transform="translate(4.149634, 25.089993)"><g><path d="M 10.5625 -9.078125 L 11.515625 -7.015625 L 11.375 -1.171875 L 10.140625 -0.078125 L 1.140625 0 L 0.390625 -1.546875 L 0.765625 -5.359375 L 4.140625 -5.34375 L 4.421875 -3.59375 L 7.4375 -3.65625 L 7.53125 -6.125 L 1.453125 -6.828125 L 0.5625 -7.828125 L 0.671875 -14.40625 L 1.4375 -15.328125 L 8.65625 -15.703125 L 11.1875 -14.984375 L 11.359375 -11.265625 L 10.640625 -10.640625 L 7.875 -10.5 L 7.390625 -12.09375 L 4.78125 -11.875 L 4.5625 -9.609375 Z M 10.5625 -9.078125 "/></g></g></g><g fill="rgb(0%, 0%, 0%)" fill-opacity="1"><g transform="translate(16.056669, 25.089993)"><g><path d="M 10.5625 -15.71875 L 11.484375 -14.71875 L 11.34375 -1.4375 L 10.609375 -0.046875 L 1.78125 0.015625 L 0.484375 -0.75 L 0.390625 -14.6875 L 1.015625 -15.671875 Z M 4.515625 -12.421875 L 4.640625 -3.34375 L 7.296875 -3.171875 L 7.328125 -12.1875 Z M 4.515625 -12.421875 "/></g></g></g><g fill="rgb(0%, 0%, 0%)" fill-opacity="1"><g transform="translate(28.327521, 27.212359)"><g><path d="M 5.546875 -1.84375 L 5.640625 0.015625 L 0.5625 -0.015625 L 0.21875 -0.421875 L 0.203125 -2.015625 L 3.484375 -5.234375 L 3.421875 -5.953125 L 2.21875 -6.0625 L 1.96875 -5.265625 L 0.5625 -5.328125 L 0.203125 -5.640625 L 0.296875 -7.5 L 1.5625 -7.859375 L 5.203125 -7.6875 L 5.546875 -6.84375 L 5.515625 -4.515625 L 2.6875 -1.8125 Z M 5.546875 -1.84375 "/></g></g></g></svg>